<?xml version="1.0" encoding="UTF-8"?>
<svg version="1.1" xmlns="http://www.w3.org/2000/svg" width="600" height="600">
<path d="M0 0 C1.32 0 2.64 0 4 0 C4.66 2.31 5.32 4.62 6 7 C6.66 5.35 7.32 3.7 8 2 C9.65 2 11.3 2 13 2 C14.38226016 4.76452033 14.09525387 7.0461363 14.0625 10.125 C14.05347656 11.22070312 14.04445313 12.31640625 14.03515625 13.4453125 C14.02355469 14.28835937 14.01195312 15.13140625 14 16 C15.65 15.67 17.3 15.34 19 15 C18.59891085 18.93067365 18.02457265 21.9461292 16.375 25.5625 C13.86663553 31.83341118 16.7108614 37.2118925 19.125 43.125 C21.76476646 49.74119288 24.23752275 56.39179312 26.5625 63.125 C27.14681958 64.8047974 27.73145149 66.48448619 28.31640625 68.1640625 C29.13816515 70.52386529 29.95975664 72.88369644 30.77685547 75.24511719 C35.70570554 89.38710081 41.05892434 103.02391482 55 110.3125 C71.1452809 116.67108666 86.47735505 112.64322769 102.61401367 108.70166016 C109.74506047 106.9908539 116.93328868 105.56857543 124.12957764 104.16397095 C125.53521279 103.88954821 126.94053253 103.61350453 128.34552002 103.33578491 C130.33871581 102.94267994 132.33340178 102.55715444 134.328125 102.171875 C136.07464355 101.8330127 136.07464355 101.8330127 137.85644531 101.48730469 C140.64110533 101.05563481 143.19042737 100.90121053 146 101 C146.27585937 100.42765625 146.55171875 99.8553125 146.8359375 99.265625 C147.99467848 97.01035733 149.26875706 94.89143622 150.625 92.75 C151.29402344 91.69039062 151.29402344 91.69039062 151.9765625 90.609375 C152.31429687 90.07828125 152.65203125 89.5471875 153 89 C154.65 89.33 156.3 89.66 158 90 C158.33 90.99 158.66 91.98 159 93 C159.60328125 92.48308594 160.2065625 91.96617187 160.828125 91.43359375 C161.62734375 90.77488281 162.4265625 90.11617188 163.25 89.4375 C164.03890625 88.77621094 164.8278125 88.11492187 165.640625 87.43359375 C168 86 168 86 170.296875 86.28515625 C170.85890625 86.52105469 171.4209375 86.75695312 172 87 C172.6875 88.8125 172.6875 88.8125 173 91 C171.5625 92.75 171.5625 92.75 170 94 C172.64 93.67 175.28 93.34 178 93 C178.33 94.32 178.66 95.64 179 97 C176.69 98.98 174.38 100.96 172 103 C173.98 103 175.96 103 178 103 C178.33 104.32 178.66 105.64 179 107 C177.35 108.32 175.7 109.64 174 111 C174.66 111.33 175.32 111.66 176 112 C175.7421875 113.8996582 175.7421875 113.8996582 175 116 C173.3203125 116.95385742 173.3203125 116.95385742 171.125 117.60546875 C170.31345459 117.86166992 169.50190918 118.11787109 168.66577148 118.38183594 C167.3462146 118.78063965 167.3462146 118.78063965 166 119.1875 C155.98652227 122.45786206 147.10868395 126.7565874 138 132 C137.2064209 132.45487793 136.4128418 132.90975586 135.59521484 133.37841797 C131.48779189 135.73782998 127.39086624 138.11458193 123.30078125 140.50390625 C119.17587106 142.90824659 115.005161 145.21417464 110.80078125 147.4765625 C107.17896673 149.44658713 103.59032717 151.47330987 100 153.5 C92.24902048 157.86812914 84.4784715 162.18507055 76.59375 166.30859375 C75.39625122 166.93507813 75.39625122 166.93507813 74.17456055 167.57421875 C72.51756595 168.44085929 70.86017678 169.30674584 69.20239258 170.171875 C64.18210995 172.80611822 59.26073061 175.56306295 54.375 178.4375 C45.13248057 183.74497926 36.9373634 186.88610615 26.23828125 184.34375 C17.07300973 181.37813913 9.90219176 176.44708495 4.97265625 168.08984375 C2.848994 163.52695498 1.7328418 159.09024742 1.21875 154.09765625 C1.09886719 152.95748047 0.97898437 151.81730469 0.85546875 150.64257812 C0.73816406 149.46115234 0.62085938 148.27972656 0.5 147.0625 C0.38269531 145.94681641 0.26539063 144.83113281 0.14453125 143.68164062 C-0.71325321 135.36666543 -1.43986482 127.04196789 -2.15637207 118.71388245 C-3.26051151 105.91111976 -4.42988633 93.11432197 -5.60449219 80.31787109 C-5.8698612 77.42511939 -6.13343749 74.53221254 -6.39550781 71.63916016 C-6.71923237 68.06564941 -7.04607964 64.49243639 -7.37503052 60.91940308 C-7.5553434 58.95304461 -7.73268915 56.98641475 -7.90991211 55.01977539 C-9.01718372 43.06139919 -10.13544005 31.1747317 -13.4140625 19.5859375 C-14.00705595 16.96885974 -14.10616643 14.67346377 -14 12 C-12.68 12.33 -11.36 12.66 -10 13 C-10.020625 12.05125 -10.04125 11.1025 -10.0625 10.125 C-10 7 -10 7 -9 5 C-7.35 5.33 -5.7 5.66 -4 6 C-3.67 6.99 -3.34 7.98 -3 9 C-2.01 6.03 -1.02 3.06 0 0 Z " fill="#4C2558" transform="translate(298,106)"/>
<path d="M0 0 C0.70898438 0.23589844 1.41796875 0.47179687 2.1484375 0.71484375 C1.8184375 1.70484375 1.4884375 2.69484375 1.1484375 3.71484375 C1.8084375 3.38484375 2.4684375 3.05484375 3.1484375 2.71484375 C5.14803762 2.67485175 7.14890992 2.67137576 9.1484375 2.71484375 C8.9834375 3.51921875 8.8184375 4.32359375 8.6484375 5.15234375 C8.11651911 7.44328805 8.11651911 7.44328805 8.1484375 8.71484375 C10.7884375 8.71484375 13.4284375 8.71484375 16.1484375 8.71484375 C16.4784375 9.70484375 16.8084375 10.69484375 17.1484375 11.71484375 C15.1484375 14.71484375 15.1484375 14.71484375 12.1484375 15.71484375 C12.9528125 15.98296875 13.7571875 16.25109375 14.5859375 16.52734375 C15.4315625 16.91921875 16.2771875 17.31109375 17.1484375 17.71484375 C17.4784375 18.70484375 17.8084375 19.69484375 18.1484375 20.71484375 C15.80251898 23.48591255 14.00067549 24.23543659 10.4609375 24.90234375 C9.65269531 25.06089844 8.84445312 25.21945312 8.01171875 25.3828125 C7.39683594 25.49238281 6.78195312 25.60195313 6.1484375 25.71484375 C6.3340625 26.51921875 6.5196875 27.32359375 6.7109375 28.15234375 C6.9275 29.42078125 6.9275 29.42078125 7.1484375 30.71484375 C6.8184375 31.04484375 6.4884375 31.37484375 6.1484375 31.71484375 C5.19582031 31.63105469 4.24320313 31.54726563 3.26171875 31.4609375 C-7.31670076 30.60205246 -12.96532052 33.45285975 -20.97558594 40.16162109 C-23.64889656 42.37499982 -26.41181112 44.46336684 -29.17553711 46.56201172 C-30.62294267 47.66140986 -32.06650044 48.7658928 -33.50610352 49.87548828 C-38.70349749 53.88078675 -43.99000128 57.73632635 -49.38671875 61.46875 C-51.83070201 63.17716548 -54.00811498 64.87247777 -56.11328125 66.9921875 C-57.8515625 68.71484375 -57.8515625 68.71484375 -59.8515625 68.71484375 C-60.3465625 70.19984375 -60.3465625 70.19984375 -60.8515625 71.71484375 C-61.5115625 71.71484375 -62.1715625 71.71484375 -62.8515625 71.71484375 C-63.1196875 72.27171875 -63.3878125 72.82859375 -63.6640625 73.40234375 C-64.8515625 75.71484375 -64.8515625 75.71484375 -66.2890625 77.77734375 C-71.89922841 88.32445566 -71.41089415 98.09295503 -68.8984375 109.37109375 C-66.71155515 116.35606127 -62.86964423 122.48451678 -59.1015625 128.71484375 C-55.77884465 134.28472468 -52.65213256 139.89517716 -49.7890625 145.71484375 C-49.46897217 146.35832764 -49.14888184 147.00181152 -48.8190918 147.66479492 C-47.44507452 150.43724881 -46.08529124 153.21325209 -44.77832031 156.01806641 C-43.68256571 158.36770082 -42.55057554 160.69720646 -41.4140625 163.02734375 C-41.09107178 163.75115234 -40.76808105 164.47496094 -40.43530273 165.22070312 C-38.90011191 168.30655826 -37.81479766 170.23392674 -34.66967773 171.80419922 C-32.29308437 172.6218963 -32.29308437 172.6218963 -29.95898438 173.18237305 C-27.19985856 173.8795062 -25.0969895 174.97644865 -22.8515625 176.71484375 C-22.8515625 177.70484375 -22.8515625 178.69484375 -22.8515625 179.71484375 C-23.8415625 180.37484375 -24.8315625 181.03484375 -25.8515625 181.71484375 C-25.28566406 182.1015625 -24.71976562 182.48828125 -24.13671875 182.88671875 C-23.40324219 183.4075 -22.66976562 183.92828125 -21.9140625 184.46484375 C-21.18316406 184.9753125 -20.45226562 185.48578125 -19.69921875 186.01171875 C-17.6241071 187.92450665 -17.11725171 188.93358649 -16.8515625 191.71484375 C-17.1815625 192.37484375 -17.5115625 193.03484375 -17.8515625 193.71484375 C-19.8315625 193.38484375 -21.8115625 193.05484375 -23.8515625 192.71484375 C-23.8515625 193.37484375 -23.8515625 194.03484375 -23.8515625 194.71484375 C-23.1915625 194.71484375 -22.5315625 194.71484375 -21.8515625 194.71484375 C-21.46937483 196.37099032 -21.13761148 198.03941399 -20.8515625 199.71484375 C-21.8515625 200.71484375 -21.8515625 200.71484375 -24.1640625 200.90234375 C-26.9294828 200.70940745 -28.49201301 200.1130953 -30.8515625 198.71484375 C-30.5215625 199.70484375 -30.1915625 200.69484375 -29.8515625 201.71484375 C-30.1815625 202.37484375 -30.5115625 203.03484375 -30.8515625 203.71484375 C-35.6015625 202.96484375 -35.6015625 202.96484375 -37.8515625 200.71484375 C-38.5115625 201.70484375 -39.1715625 202.69484375 -39.8515625 203.71484375 C-43.17864401 202.30883103 -44.90997287 200.73399368 -47.0859375 197.87109375 C-47.65957031 197.11957031 -48.23320312 196.36804688 -48.82421875 195.59375 C-49.41074219 194.80871094 -49.99726563 194.02367187 -50.6015625 193.21484375 C-51.50455078 192.03728516 -51.50455078 192.03728516 -52.42578125 190.8359375 C-56.8515625 184.98507476 -56.8515625 184.98507476 -56.8515625 182.71484375 C-57.73810768 182.31676514 -57.73810768 182.31676514 -58.64256287 181.91064453 C-60.91673963 180.67956133 -62.38547767 179.41662869 -64.19555664 177.58203125 C-64.8262355 176.94797363 -65.45691437 176.31391602 -66.10670471 175.66064453 C-66.77660934 174.97728027 -67.44651398 174.29391602 -68.13671875 173.58984375 C-68.83421738 172.88714355 -69.531716 172.18444336 -70.25035095 171.46044922 C-72.4763908 169.21661077 -74.69562947 166.9662012 -76.9140625 164.71484375 C-79.13691849 162.46436121 -81.36121626 160.21535318 -83.58848572 157.96923828 C-84.97355715 156.5719211 -86.35594657 155.17193924 -87.73536682 153.76904297 C-88.67665688 152.81795654 -88.67665688 152.81795654 -89.63696289 151.84765625 C-90.1867128 151.28965332 -90.73646271 150.73165039 -91.3028717 150.15673828 C-92.99793668 148.50098595 -92.99793668 148.50098595 -95.8515625 146.71484375 C-95.8515625 146.05484375 -95.8515625 145.39484375 -95.8515625 144.71484375 C-96.43756729 144.45415604 -97.02357208 144.19346832 -97.62733459 143.92488098 C-99.99425575 142.63721495 -101.54466759 141.26286433 -103.43920898 139.35424805 C-104.12349472 138.66981125 -104.80778046 137.98537445 -105.51280212 137.28019714 C-106.24205399 136.54062271 -106.97130585 135.80104828 -107.72265625 135.0390625 C-108.48199966 134.27688919 -109.24134308 133.51471588 -110.0236969 132.72944641 C-112.45022228 130.29173551 -114.86971459 127.84717619 -117.2890625 125.40234375 C-118.91425197 123.76711925 -120.53989795 122.13234833 -122.16601562 120.49804688 C-125.8087962 116.83539553 -129.44656018 113.16782721 -133.08175659 109.49765015 C-134.62284468 107.94524167 -136.16923214 106.39847433 -137.71899414 104.85473633 C-144.52626482 98.02408636 -146.99368361 92.02601951 -147.4140625 82.46484375 C-147.19665777 72.97465484 -144.05519012 65.38430115 -137.1640625 58.77734375 C-128.51619936 52.19742459 -117.42834073 48.86836633 -107.4140625 44.90234375 C-106.07524313 44.36959216 -104.73654007 43.83654818 -103.39794922 43.30322266 C-99.55029751 41.77087299 -95.70109275 40.24246819 -91.8515625 38.71484375 C-88.39242893 37.34184438 -84.93376326 35.96770322 -81.4765625 34.58984375 C-80.70634766 34.28288574 -79.93613281 33.97592773 -79.14257812 33.65966797 C-71.49082461 30.59546826 -63.89279963 27.40384113 -56.29077148 24.21875 C-51.23112997 22.10410142 -46.1688133 20.0281847 -41.0390625 18.08984375 C-28.58762926 13.35198197 -16.49048736 8.74517521 -5.515625 1.0859375 C-2.8515625 -0.28515625 -2.8515625 -0.28515625 0 0 Z " fill="#F7C520" transform="translate(482.8515625,243.28515625)"/>
<path d="M0 0 C6.80393057 5.38150606 11.91215163 12.55050951 17.171875 19.37890625 C19.89527967 22.89804984 22.73514689 26.3044426 25.625 29.6875 C32.57318922 37.82989009 39.31517524 46.13019015 45.9921875 54.49609375 C50.82309911 60.52063527 55.72838867 66.48371423 60.68359375 72.40625 C61.64338135 73.55855103 61.64338135 73.55855103 62.62255859 74.73413086 C63.90401145 76.27216458 65.18942719 77.80690616 66.47900391 79.33813477 C67.35758057 80.3947229 67.35758057 80.3947229 68.25390625 81.47265625 C68.78314697 82.10437744 69.3123877 82.73609863 69.85766602 83.38696289 C71 85 71 85 71 87 C71.66 87 72.32 87 73 87 C73.94829837 88.16761167 74.8309495 89.38850978 75.6875 90.625 C81.17986164 97.95988467 88.22271974 103.88410909 95 110 C94.625 111.9375 94.625 111.9375 94 114 C93.01 114.495 93.01 114.495 92 115 C92.515625 115.4125 93.03125 115.825 93.5625 116.25 C94.036875 116.8275 94.51125 117.405 95 118 C94.6875 120.1875 94.6875 120.1875 94 122 C91.03 121.505 91.03 121.505 88 121 C88.515625 121.7425 89.03125 122.485 89.5625 123.25 C91 126 91 126 90.6875 128.3125 C90.460625 128.869375 90.23375 129.42625 90 130 C86 130 86 130 84 129 C83.34 130.65 82.68 132.3 82 134 C79.67578125 133.78515625 79.67578125 133.78515625 77 133 C75.41796875 130.93359375 75.41796875 130.93359375 74.1875 128.4375 C73.76855469 127.61121094 73.34960938 126.78492188 72.91796875 125.93359375 C72.61503906 125.29550781 72.31210937 124.65742188 72 124 C71.34 124.99 70.68 125.98 70 127 C68.68 126.67 67.36 126.34 66 126 C65.84144531 125.19175781 65.68289063 124.38351562 65.51953125 123.55078125 C63.28466444 113.31484433 59.33746308 109.77052492 50.91796875 104 C47.71333724 101.80351896 44.53891818 99.56698061 41.375 97.3125 C40.49545654 96.68794922 40.49545654 96.68794922 39.59814453 96.05078125 C36.35569283 93.73437167 33.15961118 91.37096198 30.00390625 88.9375 C16.24142115 78.33901369 4.99755202 70.88436227 -13 72 C-23.84056495 73.71997319 -33.00662137 79.92295712 -39.66015625 88.49609375 C-40.10230469 88.99238281 -40.54445313 89.48867188 -41 90 C-41.66 90 -42.32 90 -43 90 C-43.39758766 90.88605423 -43.39758766 90.88605423 -43.8032074 91.79000854 C-45.03819353 94.07052799 -46.3086774 95.54431756 -48.14868164 97.35986328 C-48.78596695 97.99376984 -49.42325226 98.62767639 -50.07984924 99.28079224 C-50.76635056 99.95383392 -51.45285187 100.62687561 -52.16015625 101.3203125 C-52.86522812 102.0201828 -53.57029999 102.7200531 -54.29673767 103.44113159 C-56.5472953 105.67388982 -58.80442896 107.89984265 -61.0625 110.125 C-63.32325698 112.35816043 -65.58255022 114.59275286 -67.838974 116.83029175 C-69.24295051 118.22198888 -70.64959108 119.61100444 -72.05909729 120.99710083 C-72.69323044 121.62470306 -73.32736359 122.2523053 -73.98071289 122.89892578 C-74.54093643 123.4508963 -75.10115997 124.00286682 -75.67835999 124.57156372 C-78.5950251 127.72391249 -78.29814768 130.97089211 -78.5625 135.125 C-78.68818359 137.04699219 -78.68818359 137.04699219 -78.81640625 139.0078125 C-78.90728516 140.48894531 -78.90728516 140.48894531 -79 142 C-81 142 -83 142 -85 142 C-85.34611328 142.95712891 -85.34611328 142.95712891 -85.69921875 143.93359375 C-86.67450112 146.40456607 -87.64838308 148.71131959 -89 151 C-91.75 152.0625 -91.75 152.0625 -94 152 C-94.33 150.02 -94.66 148.04 -95 146 C-96.485 147.98 -96.485 147.98 -98 150 C-99.65 149.67 -101.3 149.34 -103 149 C-102.505 145.04 -102.505 145.04 -102 141 C-102.33 141.33 -102.66 141.66 -103 142 C-104.66617115 142.04063832 -106.33388095 142.042721 -108 142 C-107.125 136.25 -107.125 136.25 -106 134 C-107.32 134 -108.64 134 -110 134 C-109.48335054 129.46496589 -107.77914994 127.07678748 -104.9375 123.5625 C-99.89558775 117.10832963 -95.8759682 110.19953752 -92 103 C-91.6390625 102.33307129 -91.278125 101.66614258 -90.90625 100.97900391 C-86.48153652 92.78060901 -82.21991644 84.50878249 -78.08984375 76.15844727 C-75.48401595 70.91024339 -72.75320275 65.73461414 -70 60.5625 C-66.83681629 54.61003419 -63.8238639 48.62064427 -61 42.5 C-56.67489641 33.15041905 -51.95590554 24.0301504 -47 15 C-46.071875 13.30037109 -46.071875 13.30037109 -45.125 11.56640625 C-40.27830116 3.29784827 -34.69537805 -1.03919596 -25.5625 -3.9375 C-16.61738954 -6.03050635 -7.96964889 -4.58703264 0 0 Z M82 126 C83 128 83 128 83 128 Z " fill="#F6921F" transform="translate(328,348)"/>
<path d="M0 0 C4.54924362 0.42917393 8.6945289 1.14428882 13.07666016 2.44726562 C18.8412547 4.04637426 24.5226259 4.88437746 30.4609375 5.53125 C31.53491791 5.65399292 32.60889832 5.77673584 33.71542358 5.90319824 C45.14399052 7.18100438 56.5958076 8.2051311 68.05258179 9.19198608 C74.16994332 9.71942503 80.28602362 10.26142461 86.40234375 10.80078125 C88.18446007 10.95737968 88.18446007 10.95737968 90.00257874 11.11714172 C99.4005206 11.94359111 108.79586115 12.79226456 118.1875 13.6875 C119.34008301 13.79449219 120.49266602 13.90148437 121.68017578 14.01171875 C148.09147011 16.56084081 148.09147011 16.56084081 156.8125 25.6875 C162.80069195 33.15185089 164.4455155 40.26068917 164.43359375 49.7265625 C163.28097476 58.42831671 158.52322025 65.91656923 154.375 73.5 C153.7469043 74.65693359 153.11880859 75.81386719 152.47167969 77.00585938 C148.42614438 84.44033566 144.32838079 91.84346694 140.1484375 99.203125 C137.69006894 103.53333617 135.28499246 107.89274449 132.875 112.25 C129.51915411 118.3106628 126.0843637 124.31608858 122.57421875 130.2890625 C119.95090108 134.80663685 117.47253611 139.39867061 115 144 C114.34129728 145.21232188 113.68243416 146.42455662 113.0234375 147.63671875 C107.54856512 157.74843344 102.5197506 167.76835866 99.08984375 178.78515625 C97.78989482 181.42698794 96.715475 182.00075036 94 183 C93.34 182.34 92.68 181.68 92 181 C91.01 182.65 90.02 184.3 89 186 C87.68 185.67 86.36 185.34 85 185 C85 183.02 85 181.04 85 179 C83.35 180.98 81.7 182.96 80 185 C78.35 184.67 76.7 184.34 75 184 C75.495 181.03 75.495 181.03 76 178 C75.67 178.33 75.34 178.66 75 179 C73.33382885 179.04063832 71.66611905 179.042721 70 179 C69.28515625 176.76953125 69.28515625 176.76953125 69 174 C70.43359375 171.76171875 70.43359375 171.76171875 72.4375 169.6875 C73.09621094 168.99011719 73.75492187 168.29273438 74.43359375 167.57421875 C74.95050781 167.05472656 75.46742188 166.53523437 76 166 C74.68 165.67 73.36 165.34 72 165 C72.203125 162.66015625 72.203125 162.66015625 73 160 C75.109375 158.68359375 75.109375 158.68359375 77.75 157.4375 C85.17010226 152.4207972 85.62060997 144.73994644 87.24853516 136.53320312 C88.67751542 129.81448892 90.43156635 123.17267208 92.12619019 116.51693726 C93.13007871 112.56704526 94.12103141 108.61396188 95.109375 104.66015625 C95.37309151 103.6127829 95.37309151 103.6127829 95.64213562 102.54425049 C98.41068843 91.47411503 99.25794308 81.87771396 95 71 C93.48715374 68.4875946 91.8197252 66.31154282 90 64 C90 63.34 90 62.68 90 62 C88.515 61.505 88.515 61.505 87 61 C87 60.34 87 59.68 87 59 C86.42121094 58.72414063 85.84242188 58.44828125 85.24609375 58.1640625 C83.05983138 57.03100826 81.10993401 55.739956 79.0625 54.375 C73.40718826 50.96877477 67.48796482 48.79092816 61.31005859 46.54467773 C55.30667305 44.33347741 49.43046134 41.91842477 43.578125 39.33984375 C42.4805764 38.85960251 42.4805764 38.85960251 41.3608551 38.36965942 C35.42732825 35.77249936 35.42732825 35.77249936 32.50924683 34.45117188 C30.43371208 33.51193807 28.34906552 32.5962111 26.26171875 31.68359375 C25.64778259 31.39757797 25.03384644 31.11156219 24.40130615 30.81687927 C19.44227655 28.68596861 16.15063418 28.97328757 11 30 C9.65909241 30.65129797 8.32407669 31.31513275 7 32 C4.25 32.125 4.25 32.125 2 32 C2.33 30.02 2.66 28.04 3 26 C-1.29 26 -5.58 26 -10 26 C-10.33 24.35 -10.66 22.7 -11 21 C-9.68 20.34 -8.36 19.68 -7 19 C-9.475 18.01 -9.475 18.01 -12 17 C-11.67 15.35 -11.34 13.7 -11 12 C-7.535 11.505 -7.535 11.505 -4 11 C-4.99 10.34 -5.98 9.68 -7 9 C-7 7.68 -7 6.36 -7 5 C-3.535 4.505 -3.535 4.505 0 4 C0 2.68 0 1.36 0 0 Z " fill="#F64E53" transform="translate(114,289)"/>
<path d="M0 0 C1.9375 1.4375 1.9375 1.4375 2.6875 4.5625 C2.77 5.51125 2.8525 6.46 2.9375 7.4375 C3.5975 7.4375 4.2575 7.4375 4.9375 7.4375 C5.2675 5.7875 5.5975 4.1375 5.9375 2.4375 C6.9275 2.4375 7.9175 2.4375 8.9375 2.4375 C9.9275 4.9125 9.9275 4.9125 10.9375 7.4375 C11.8965625 7.1590625 11.8965625 7.1590625 12.875 6.875 C13.555625 6.730625 14.23625 6.58625 14.9375 6.4375 C16.59841548 8.09841548 16.24285998 10.17561819 16.41015625 12.46484375 C17.85389446 29.76399013 21.11558231 45.97048955 25.30474854 62.77168274 C27.35781131 71.04266629 29.17815206 79.36313185 31 87.6875 C32.92359894 96.45839222 34.86437162 105.2217142 36.9609375 113.953125 C37.12349533 114.63352844 37.28605316 115.31393188 37.45353699 116.01495361 C38.21398773 119.19550448 38.98275599 122.37323848 39.76782227 125.54785156 C42.6265284 137.44455202 45.12991351 149.4216559 38.8125 160.5625 C33.693766 168.1051051 27.16677238 172.7244501 18.4375 175.125 C12.58631689 175.85639789 7.22430076 175.26931659 1.46875 174.1171875 C0.76413132 173.9781752 0.05951263 173.8391629 -0.66645813 173.69593811 C-2.9663886 173.24084445 -5.26437971 172.77663979 -7.5625 172.3125 C-9.18044241 171.99091133 -10.79852737 171.67003903 -12.41674805 171.34985352 C-15.71506294 170.69671275 -19.01276946 170.04062302 -22.31005859 169.38232422 C-29.15941369 168.01735459 -36.0170795 166.69618166 -42.875 165.375 C-50.65720316 163.87328583 -58.43809887 162.36564505 -66.21484375 160.8359375 C-93.43896646 155.34409384 -93.43896646 155.34409384 -121.03515625 152.6484375 C-124.0625 152.4375 -124.0625 152.4375 -126.0625 151.4375 C-126.0625 150.4475 -126.0625 149.4575 -126.0625 148.4375 C-125.4025 148.1075 -124.7425 147.7775 -124.0625 147.4375 C-126.3725 146.7775 -128.6825 146.1175 -131.0625 145.4375 C-130.48905063 142.57025314 -130.2010485 141.5760485 -128.0625 139.4375 C-129.7125 138.4475 -131.3625 137.4575 -133.0625 136.4375 C-132.75 134.5 -132.75 134.5 -132.0625 132.4375 C-129.0625 131.4375 -129.0625 131.4375 -126.0625 131.4375 C-127.0525 130.7775 -128.0425 130.1175 -129.0625 129.4375 C-128.7325 127.7875 -128.4025 126.1375 -128.0625 124.4375 C-123.7447542 124.94547009 -120.02947886 125.63432779 -116.0625 127.4375 C-115.7325 125.7875 -115.4025 124.1375 -115.0625 122.4375 C-112.10074877 123.05027612 -110.68191217 123.69122522 -108.0625 125.4375 C-108.0625 126.0975 -108.0625 126.7575 -108.0625 127.4375 C-97.12663294 132.66865364 -80.38651503 129.16953059 -68.5703125 128.32055664 C-65.80275581 128.12430904 -63.03440451 127.9456339 -60.265625 127.76757812 C-44.97380681 126.72589694 -30.33664078 125.40474987 -19.1875 113.6875 C-15.67798443 109.36873143 -13.73901015 104.70539682 -12.0625 99.4375 C-11.70671875 98.38304687 -11.3509375 97.32859375 -10.984375 96.2421875 C-9.8692239 91.6398266 -9.72487771 87.34191358 -9.625 82.625 C-9.40032155 75.26340459 -8.97663849 67.94590482 -8.30078125 60.61328125 C-8.23099564 59.85564987 -8.16121002 59.09801849 -8.08930969 58.31742859 C-7.73664594 54.53594315 -7.36949424 50.75622327 -6.99047852 46.97729492 C-6.8555208 45.56820721 -6.72066912 44.15910934 -6.5859375 42.75 C-6.46138184 41.50863281 -6.33682617 40.26726562 -6.20849609 38.98828125 C-6.02427562 34.50784215 -5.93435522 30.16817665 -8.4375 26.328125 C-8.97375 25.78671875 -9.51 25.2453125 -10.0625 24.6875 C-12.24203961 22.44508906 -13.04211819 21.49864543 -14.0625 18.4375 C-12.4125 17.7775 -10.7625 17.1175 -9.0625 16.4375 C-9.40474609 15.64085937 -9.40474609 15.64085937 -9.75390625 14.828125 C-10.18509766 13.76851562 -10.18509766 13.76851562 -10.625 12.6875 C-10.91503906 11.99140625 -11.20507812 11.2953125 -11.50390625 10.578125 C-12.14081803 8.13737216 -11.86498831 6.7971345 -11.0625 4.4375 C-9.25 3.75 -9.25 3.75 -7.0625 3.4375 C-5.3125 4.875 -5.3125 4.875 -4.0625 6.4375 C-4.0625 4.4575 -4.0625 2.4775 -4.0625 0.4375 C-2.0625 -0.5625 -2.0625 -0.5625 0 0 Z " fill="#91278C" transform="translate(246.0625,124.5625)"/>
<path d="M0 0 C0.72703125 0.41636719 1.4540625 0.83273438 2.203125 1.26171875 C2.99203125 1.70902344 3.7809375 2.15632812 4.59375 2.6171875 C14.15671148 8.5227912 19.66231363 16.63928464 23.203125 27.26171875 C24.1148834 37.18290777 24.41298962 47.4938978 19.203125 56.26171875 C18.44515625 57.545625 18.44515625 57.545625 17.671875 58.85546875 C14.90814158 63.24492771 14.90814158 63.24492771 13.203125 65.26171875 C12.543125 65.26171875 11.883125 65.26171875 11.203125 65.26171875 C10.708125 66.74671875 10.708125 66.74671875 10.203125 68.26171875 C-0.30009893 76.26417508 -10.76610585 78.43287259 -23.796875 77.26171875 C-35.25554647 75.09275594 -44.03622076 68.66306038 -50.62109375 59.12890625 C-56.57981521 49.66621901 -58.26924762 39.62578504 -56.33203125 28.62109375 C-53.38857516 17.5439454 -47.086091 8.9260172 -37.796875 2.26171875 C-34.54184144 0.5950679 -31.28727345 -0.66234191 -27.796875 -1.73828125 C-19.42318305 -4.5295119 -7.91643651 -3.83704831 0 0 Z " fill="#4B2558" transform="translate(390.796875,135.73828125)"/>
<path d="M0 0 C1.29744141 -0.04350586 1.29744141 -0.04350586 2.62109375 -0.08789062 C13.06373068 -0.18965545 21.38241267 4.44858516 28.9375 11.5 C36.3950623 19.22154681 39.36305794 28.05274428 39.75 38.625 C39.54456598 49.73127653 35.02407279 59.16426345 27.5625 67.28515625 C22.73456375 71.86974894 17.65183052 74.23880466 11.375 76.3125 C10.385 76.6425 9.395 76.9725 8.375 77.3125 C-5.07482124 78.25337052 -15.12873264 76.63780968 -25.9453125 67.99609375 C-27.625 66.3125 -27.625 66.3125 -28.625 63.3125 C-29.285 63.3125 -29.945 63.3125 -30.625 63.3125 C-31.42050392 61.91885 -32.21121838 60.52246569 -33 59.125 C-33.66128906 57.95904297 -33.66128906 57.95904297 -34.3359375 56.76953125 C-38.99766565 47.88399487 -39.84339893 37.42404737 -37.40234375 27.67578125 C-33.83238673 16.82239433 -27.55477276 8.5626689 -17.25 3.3125 C-11.27722263 0.58208749 -6.49173933 0.0706648 0 0 Z " fill="#F7C61F" transform="translate(457.625,302.6875)"/>
<path d="M0 0 C8.3317981 6.92756247 13.55928703 15.46787032 14.6484375 26.359375 C15.33544619 38.87581457 12.5760212 48.35669313 4.6484375 58.18359375 C-2.56596943 66.03207942 -13.25329751 70.27491186 -23.8515625 70.859375 C-34.46406787 70.27412654 -44.98742708 66.01144612 -52.31640625 58.2890625 C-60.00786803 48.95523785 -63.07001919 39.37896125 -62.3515625 27.359375 C-61.22748446 15.80532693 -55.56254403 7.6387093 -46.8515625 0.234375 C-32.78011556 -10.31921021 -14.38790249 -10.03807151 0 0 Z " fill="#F6921F" transform="translate(346.3515625,433.640625)"/>
<path d="M0 0 C8.34467273 6.83989568 13.62610367 14.55037133 15.75 25.25 C16.62071328 37.60743081 14.73529701 47.5734938 6.75 57.25 C-0.23611691 64.7848349 -8.74206294 69.72098546 -19.1328125 70.453125 C-31.53287908 70.63240307 -41.09796694 68.07694065 -50.2265625 59.36328125 C-58.41235933 50.49823745 -61.80358849 40.7141203 -61.5546875 28.65625 C-60.53650769 17.27352192 -55.45562569 8.54626669 -46.82421875 1.1796875 C-32.71365422 -9.30997012 -14.68882666 -10.27937009 0 0 Z " fill="#F74E53" transform="translate(190.25,348.75)"/>
<path d="M0 0 C0.55816406 0.39058594 1.11632812 0.78117188 1.69140625 1.18359375 C2.68140625 1.84359375 3.67140625 2.50359375 4.69140625 3.18359375 C4.69140625 3.84359375 4.69140625 4.50359375 4.69140625 5.18359375 C5.35140625 5.18359375 6.01140625 5.18359375 6.69140625 5.18359375 C8.34765625 7.34375 8.34765625 7.34375 10.19140625 10.24609375 C10.79984375 11.18582031 11.40828125 12.12554687 12.03515625 13.09375 C16.81761592 22.01574435 17.30167584 32.87910076 14.81640625 42.609375 C10.9464293 52.62803242 3.79871158 61.29083259 -6.01245117 66.00170898 C-11.28944818 68.2159577 -16.05934823 68.69294073 -21.74609375 68.62109375 C-22.58503174 68.61352051 -23.42396973 68.60594727 -24.28833008 68.59814453 C-30.38356078 68.43535155 -35.18974594 67.6865341 -40.30859375 64.18359375 C-40.99953125 63.73628906 -41.69046875 63.28898437 -42.40234375 62.828125 C-51.02827218 56.82538003 -56.44717703 49.47414258 -59.05859375 39.24609375 C-60.15507455 25.8142039 -58.24525852 15.91802493 -49.7109375 5.171875 C-36.58504632 -9.13317425 -15.71538933 -10.53160746 0 0 Z " fill="#91278D" transform="translate(214.30859375,177.81640625)"/>
<path d="M0 0 C3.97034929 2.59251118 6.39132663 5.68746386 7.8515625 10.2578125 C8.80704548 15.0352274 7.97446132 18.42373283 5.52734375 22.609375 C3.345684 25.62500255 1.70279477 26.89523081 -1.75 28.375 C-6.69247709 29.15864727 -11.46733497 29.56167042 -16.01171875 27.19921875 C-19.38973146 24.45856693 -21.79977115 21.70382031 -22.75 17.375 C-23.07384492 12.84117113 -22.96510236 9.38328046 -20.75 5.375 C-14.95201634 -1.18587624 -8.32295165 -4.29571698 0 0 Z " fill="#522858" transform="translate(309.75,298.625)"/>
<path d="M0 0 C2.25 0.1875 2.25 0.1875 5 1 C5.5775 1.825 6.155 2.65 6.75 3.5 C9.72847853 6.80942059 11.87706112 6.70072784 16.171875 6.95703125 C17.07679688 6.97830078 17.07679688 6.97830078 18 7 C17.75 9.3125 17.75 9.3125 17 12 C16.3503125 12.4434375 15.700625 12.886875 15.03125 13.34375 C12.41386024 15.47792935 12.26240104 16.89959331 11.75 20.1875 C11.60046875 21.08855469 11.4509375 21.98960937 11.296875 22.91796875 C11.19890625 23.60503906 11.1009375 24.29210937 11 25 C9.68 25 8.36 25 7 25 C6.443125 24.195625 5.88625 23.39125 5.3125 22.5625 C2.28194625 19.20431882 0.18749617 19.30312477 -4.171875 19.04296875 C-4.77515625 19.02878906 -5.3784375 19.01460938 -6 19 C-6.61328125 17.140625 -6.61328125 17.140625 -7 15 C-5.1875 12.75 -5.1875 12.75 -3 11 C-2.34 11 -1.68 11 -1 11 C-1.01160156 10.37351562 -1.02320313 9.74703125 -1.03515625 9.1015625 C-1.04417969 8.28429687 -1.05320312 7.46703125 -1.0625 6.625 C-1.07410156 5.81289063 -1.08570313 5.00078125 -1.09765625 4.1640625 C-1 2 -1 2 0 0 Z " fill="#F29022" transform="translate(364,487)"/>
<path d="M0 0 C2.91517292 1.07401108 4.77810176 1.77810176 7 4 C9.44012949 4.24287489 9.44012949 4.24287489 12.125 4.125 C13.03507812 4.10695313 13.94515625 4.08890625 14.8828125 4.0703125 C15.58148438 4.04710937 16.28015625 4.02390625 17 4 C17.75 6.25 17.75 6.25 18 9 C17.360625 9.53625 16.72125 10.0725 16.0625 10.625 C12.69843823 14.4987681 13.6944427 19.07713232 14 24 C10.62537285 23.45276317 8.91765 22.9451 6 21 C6 20.34 6 19.68 6 19 C4.95199219 19.12568359 4.95199219 19.12568359 3.8828125 19.25390625 C2.97273438 19.35574219 2.06265625 19.45757812 1.125 19.5625 C0.22007813 19.66691406 -0.68484375 19.77132813 -1.6171875 19.87890625 C-4 20 -4 20 -6 19 C-4.34862828 14.29994204 -4.34862828 14.29994204 -2.43359375 12.65234375 C-0.44186685 10.35670211 -0.727065 8.85980613 -0.875 5.875 C-0.94560869 4.25100015 -0.99417375 2.62552366 -1 1 C-0.67 0.67 -0.34 0.34 0 0 Z " fill="#F18926" transform="translate(105,347)"/>
<path d="M0 0 C2.625 0.375 2.625 0.375 5 1 C4.896875 2.2375 4.79375 3.475 4.6875 4.75 C4.61048748 6.94660344 4.61048748 6.94660344 5 9 C7.360962 11.2889924 7.360962 11.2889924 10 13 C10.875 15.1875 10.875 15.1875 11 17 C9.48068167 18.51931833 7.9898573 18.11222542 5.875 18.1875 C0.47807179 18.68833494 -2.35740782 21.17000757 -6 25 C-6.66 24.67 -7.32 24.34 -8 24 C-8 20.7 -8 17.4 -8 14 C-9.32 13.34 -10.64 12.68 -12 12 C-13.75 10.375 -13.75 10.375 -15 9 C-14.67 8.01 -14.34 7.02 -14 6 C-10.7 6 -7.4 6 -4 6 C-3.34 4.68 -2.68 3.36 -2 2 C-1.34 1.34 -0.68 0.68 0 0 Z " fill="#DD802B" transform="translate(445,162)"/>
<path d="M0 0 C0.8971875 0.309375 0.8971875 0.309375 1.8125 0.625 C1.64492187 1.23988281 1.47734375 1.85476562 1.3046875 2.48828125 C1.10101563 3.29652344 0.89734375 4.10476562 0.6875 4.9375 C0.47867188 5.73800781 0.26984375 6.53851563 0.0546875 7.36328125 C-0.46177334 9.90707233 -0.46177334 9.90707233 1.8125 12.625 C1.4375 15.3125 1.4375 15.3125 0.8125 17.625 C0.19761719 17.45742187 -0.41726562 17.28984375 -1.05078125 17.1171875 C-1.85902344 16.91351563 -2.66726562 16.70984375 -3.5 16.5 C-4.30050781 16.29117188 -5.10101563 16.08234375 -5.92578125 15.8671875 C-8.46957233 15.35072666 -8.46957233 15.35072666 -11.1875 17.625 C-12.5075 17.625 -13.8275 17.625 -15.1875 17.625 C-15.09210938 16.97273438 -14.99671875 16.32046875 -14.8984375 15.6484375 C-14.23395819 10.40986807 -13.96956733 6.58273184 -16.1875 1.625 C-13.1477281 0.8203545 -11.19415353 0.62380236 -8.0625 1.1875 C-4.31664511 1.7575214 -3.51911424 -0.60327673 0 0 Z " fill="#DC7A32" transform="translate(219.1875,138.375)"/>
<path d="M0 0 C2.86724686 0.57344937 3.8614515 0.8614515 6 3 C9.58343976 3.16677282 9.58343976 3.16677282 13 3 C13 7 13 7 12 9.4375 C10.93818793 12.15839343 10.83479242 14.10886734 11 17 C6.125 16.125 6.125 16.125 5 15 C3.65252916 14.76924918 2.29622435 14.58846937 0.9375 14.4375 C-0.361875 14.293125 -1.66125 14.14875 -3 14 C-2.125 10.125 -2.125 10.125 -1 9 C-0.76807135 7.48530552 -0.58784762 5.96245438 -0.4375 4.4375 C-0.35371094 3.61121094 -0.26992187 2.78492188 -0.18359375 1.93359375 C-0.12300781 1.29550781 -0.06242187 0.65742188 0 0 Z " fill="#EE842A" transform="translate(114,328)"/>
<path d="M0 0 C1.875 0.25 1.875 0.25 4 1 C5.25 3.0625 5.25 3.0625 6 5 C8.31 5 10.62 5 13 5 C12.42655063 7.86724686 12.1385485 8.8614515 10 11 C9.28072705 13.31765729 8.6090107 15.65095874 8 18 C4.125 16.125 4.125 16.125 3 15 C0.67182036 14.63239269 -1.6618385 14.29758419 -4 14 C-4.33 12.68 -4.66 11.36 -5 10 C-4.360625 9.649375 -3.72125 9.29875 -3.0625 8.9375 C-0.17836168 6.22815794 -0.2899178 3.84141089 0 0 Z " fill="#EE8F24" transform="translate(378,472)"/>
<path d="M0 0 C0.99 0 1.98 0 3 0 C3.185625 0.598125 3.37125 1.19625 3.5625 1.8125 C5.72273753 5.09981799 8.35107655 5.64854687 12 7 C11.67 7.99 11.34 8.98 11 10 C10.360625 10.268125 9.72125 10.53625 9.0625 10.8125 C6.661178 11.91161165 6.661178 11.91161165 5.75 15.125 C5.5025 16.07375 5.255 17.0225 5 18 C3.68 18 2.36 18 1 18 C0.525625 17.195625 0.05125 16.39125 -0.4375 15.5625 C-1.76479918 12.74523291 -1.76479918 12.74523291 -4.6875 12.1875 C-5.450625 12.125625 -6.21375 12.06375 -7 12 C-6.45028435 8.15199046 -4.72962142 6.64690561 -2 4 C-0.76487921 1.86690808 -0.76487921 1.86690808 0 0 Z " fill="#EF9324" transform="translate(492,285)"/>
<path d="M0 0 C1.32 0 2.64 0 4 0 C4.12375 1.6396875 4.12375 1.6396875 4.25 3.3125 C4.63689209 7.03276664 4.63689209 7.03276664 7.0625 8.9375 C7.701875 9.288125 8.34125 9.63875 9 10 C8.67 10.99 8.34 11.98 8 13 C6.906875 13.0825 5.81375 13.165 4.6875 13.25 C0.96723336 13.63689209 0.96723336 13.63689209 -0.9375 16.0625 C-1.288125 16.701875 -1.63875 17.34125 -2 18 C-2.99 17.67 -3.98 17.34 -5 17 C-5.103125 15.906875 -5.20625 14.81375 -5.3125 13.6875 C-6.00911341 9.951119 -6.31679294 9.33322353 -9 7 C-9 6.01 -9 5.02 -9 4 C-7.88625 3.896875 -6.7725 3.79375 -5.625 3.6875 C-4.42875 3.460625 -3.2325 3.23375 -2 3 C-1.34 2.01 -0.68 1.02 0 0 Z " fill="#CF7831" transform="translate(432,141)"/>
<path d="M0 0 C1.9375 1.4375 1.9375 1.4375 2.6875 4.5625 C2.77 5.51125 2.8525 6.46 2.9375 7.4375 C3.5975 7.4375 4.2575 7.4375 4.9375 7.4375 C5.2675 5.7875 5.5975 4.1375 5.9375 2.4375 C6.9275 2.4375 7.9175 2.4375 8.9375 2.4375 C9.9275 5.4075 10.9175 8.3775 11.9375 11.4375 C11.2775 11.4375 10.6175 11.4375 9.9375 11.4375 C9.2775 9.1275 8.6175 6.8175 7.9375 4.4375 C7.6075 4.4375 7.2775 4.4375 6.9375 4.4375 C6.6075 7.4075 6.2775 10.3775 5.9375 13.4375 C2.59481632 11.76615816 2.22538632 8.07989663 1.03515625 4.6875 C0.67292969 3.945 0.31070313 3.2025 -0.0625 2.4375 C-1.0525 2.1075 -2.0425 1.7775 -3.0625 1.4375 C-3.3925 2.4275 -3.7225 3.4175 -4.0625 4.4375 C-4.0625 3.1175 -4.0625 1.7975 -4.0625 0.4375 C-2.0625 -0.5625 -2.0625 -0.5625 0 0 Z " fill="#8E316E" transform="translate(246.0625,124.5625)"/>
<path d="M0 0 C0 0.66 0 1.32 0 2 C-0.639375 2.28875 -1.27875 2.5775 -1.9375 2.875 C-4.15206079 3.82823451 -4.15206079 3.82823451 -5 6 C-1.535 5.505 -1.535 5.505 2 5 C-0.60836278 9.63708939 -3.77002574 13.78744458 -7 18 C-6.34 18.99 -5.68 19.98 -5 21 C-6.32 20.67 -7.64 20.34 -9 20 C-8.67566492 14.64847115 -5.50295176 11.71719957 -2 8 C-3.32 7.67 -4.64 7.34 -6 7 C-5.6875 4.625 -5.6875 4.625 -5 2 C-2 0 -2 0 0 0 Z " fill="#E3564A" transform="translate(192,447)"/>
<path d="M0 0 C1.51400391 0.01740234 1.51400391 0.01740234 3.05859375 0.03515625 C4.07050781 0.04417969 5.08242187 0.05320312 6.125 0.0625 C7.29869141 0.07990234 7.29869141 0.07990234 8.49609375 0.09765625 C8.49609375 0.42765625 8.49609375 0.75765625 8.49609375 1.09765625 C5.46875 1.34179688 5.46875 1.34179688 2.44140625 1.5859375 C0.10090159 1.97158661 0.10090159 1.97158661 -1.50390625 5.09765625 C-0.87742187 5.14664062 -0.2509375 5.195625 0.39453125 5.24609375 C1.21179688 5.32085937 2.0290625 5.395625 2.87109375 5.47265625 C4.08925781 5.57707031 4.08925781 5.57707031 5.33203125 5.68359375 C7.49609375 6.09765625 7.49609375 6.09765625 9.49609375 8.09765625 C3.55609375 7.10765625 3.55609375 7.10765625 -2.50390625 6.09765625 C-2.83390625 4.44765625 -3.16390625 2.79765625 -3.50390625 1.09765625 C-2.50390625 0.09765625 -2.50390625 0.09765625 0 0 Z " fill="#E1564C" transform="translate(105.50390625,300.90234375)"/>
<path d="M0 0 C0.66 0 1.32 0 2 0 C2.8435518 6.74841438 2.8435518 6.74841438 0.44140625 10.3125 C-1.31013563 12.28606831 -3.0959953 14.17370978 -5 16 C-5.33 15.01 -5.66 14.02 -6 13 C-4.71034824 11.62437146 -3.37310707 10.29233607 -2 9 C-1.34 9 -0.68 9 0 9 C0 6.03 0 3.06 0 0 Z " fill="#E4882C" transform="translate(363,489)"/>
<path d="M0 0 C0.66 0.33 1.32 0.66 2 1 C1.22914063 1.75925781 0.45828125 2.51851563 -0.3359375 3.30078125 C-1.34909096 4.30455366 -2.36210448 5.30846732 -3.375 6.3125 C-3.88289062 6.81201172 -4.39078125 7.31152344 -4.9140625 7.82617188 C-7.22854133 10.12542387 -9.18347483 12.27521225 -11 15 C-11.66 14.67 -12.32 14.34 -13 14 C-11.77801556 12.41111701 -10.54705525 10.82913536 -9.3125 9.25 C-8.28576172 7.92742187 -8.28576172 7.92742187 -7.23828125 6.578125 C-5.01538057 4.01771584 -2.70749594 2.02943654 0 0 Z " fill="#E6584A" transform="translate(146,348)"/>
<path d="M0 0 C0 3 0 3 -2.1875 5.48046875 C-3.115625 6.37378906 -4.04375 7.26710937 -5 8.1875 C-5.928125 9.08855469 -6.85625 9.98960937 -7.8125 10.91796875 C-8.534375 11.60503906 -9.25625 12.29210937 -10 13 C-10 9.28115772 -9.1259934 8.63852271 -6.6875 5.9375 C-5.76517578 4.89916016 -5.76517578 4.89916016 -4.82421875 3.83984375 C-3 2 -3 2 0 0 Z " fill="#562954" transform="translate(351,140)"/>
<path d="M0 0 C1.32 0.33 2.64 0.66 4 1 C3.01 1.495 3.01 1.495 2 2 C2 3.98 2 5.96 2 8 C0.02 7.34 -1.96 6.68 -4 6 C-3.01 5.34 -2.02 4.68 -1 4 C-0.27617533 1.94074861 -0.27617533 1.94074861 0 0 Z " fill="#842A78" transform="translate(131,247)"/>
<path d="M0 0 C2.52480693 2.52480693 2.55738633 4.13823034 3.125 7.625 C3.29257812 8.62789062 3.46015625 9.63078125 3.6328125 10.6640625 C3.75398438 11.43492187 3.87515625 12.20578125 4 13 C3.34 13 2.68 13 2 13 C0.54815522 8.46298506 -0.23509196 4.81938524 0 0 Z " fill="#8D3075" transform="translate(279,228)"/>
<path d="M0 0 C-1.15173355 2.46800047 -2.04783565 4.04783565 -4 6 C-4.99 5.67 -5.98 5.34 -7 5 C-2.25 0 -2.25 0 0 0 Z " fill="#DB9731" transform="translate(349,301)"/>
</svg>
